<svg width="31" height="32" viewBox="0 0 31 32" fill="none" xmlns="http://www.w3.org/2000/svg">
    <path d="M15.5 19.875V3.08337M15.5 3.08337L19.375 7.60421M15.5 3.08337L11.625 7.60421"
        stroke="#FF0000" stroke-width="4" stroke-linecap="round" stroke-linejoin="round" />
    <path
        d="M10.3333 28.917H20.6667C24.32 28.917 26.1467 28.917 27.2817 27.782C28.4167 26.6471 28.4167 24.8203 28.4167 21.167V19.8753C28.4167 16.222 28.4167 14.3953 27.2817 13.2603C26.2892 12.2678 24.7677 12.1432 21.9583 12.1276M9.04168 12.1276C6.23226 12.1432 4.7108 12.2678 3.71831 13.2603C2.58334 14.3953 2.58334 16.222 2.58334 19.8753V21.167C2.58334 24.8203 2.58334 26.6471 3.71831 27.782C4.10555 28.1692 4.57331 28.4243 5.16668 28.5925"
        stroke="#FF0000" stroke-width="4" stroke-linecap="round" />
</svg>
    