<svg width="84" height="54" viewBox="0 0 84 54" fill="none" xmlns="http://www.w3.org/2000/svg">
    <path
        d="M19.1092 50.5V13.0085C19.1092 11.9039 18.2138 11.0085 17.1092 11.0085H4C2.89543 11.0085 2 10.113 2 9.00848V3.5C2 2.39543 2.89543 1.5 4 1.5H49.8777C50.9823 1.5 51.8777 2.39543 51.8777 3.5V9.00848C51.8777 10.113 50.9823 11.0085 49.8777 11.0085H33.0286L47.2163 22.1425C47.9938 22.7526 49.1003 22.7034 49.8205 22.0267L69.5561 3.48313C69.927 3.13467 70.4167 2.94068 70.9256 2.94068H80.3129C81.4174 2.94068 82.3129 3.83611 82.3129 4.94068V50.5C82.3129 51.6046 81.4174 52.5 80.3129 52.5H72.1334C71.0288 52.5 70.1334 51.6046 70.1334 50.5V17.8473C70.1334 16.1091 68.0688 15.1983 66.785 16.3702L49.8044 31.8715C49.089 32.5246 48.0084 32.5711 47.2395 31.982L33.0286 21.0932V50.5C33.0286 51.6046 32.1332 52.5 31.0286 52.5H21.1092C20.0047 52.5 19.1092 51.6046 19.1092 50.5Z"
        fill="#FF0000" />
    <path
        d="M33.0286 11.0085H49.8777C50.9823 11.0085 51.8777 10.113 51.8777 9.00848V3.5C51.8777 2.39543 50.9823 1.5 49.8777 1.5H4C2.89543 1.5 2 2.39543 2 3.5V9.00848C2 10.113 2.89543 11.0085 4 11.0085H17.1092C18.2138 11.0085 19.1092 11.9039 19.1092 13.0085V50.5C19.1092 51.6046 20.0047 52.5 21.1092 52.5H31.0286C32.1332 52.5 33.0286 51.6046 33.0286 50.5V21.0932M33.0286 11.0085L47.2163 22.1425C47.9938 22.7526 49.1003 22.7034 49.8205 22.0267L69.5561 3.48313C69.927 3.13467 70.4167 2.94068 70.9256 2.94068H80.3129C81.4174 2.94068 82.3129 3.83611 82.3129 4.94068V50.5C82.3129 51.6046 81.4174 52.5 80.3129 52.5H72.1334C71.0288 52.5 70.1334 51.6046 70.1334 50.5V17.8473C70.1334 16.1091 68.0688 15.1983 66.785 16.3702L49.8044 31.8715C49.089 32.5246 48.0084 32.5711 47.2395 31.982L33.0286 21.0932M33.0286 11.0085V21.0932"
        stroke="black" stroke-width="3" />
</svg>
    